<svg width="218" height="114" viewBox="0 0 218 114" fill="none" xmlns="http://www.w3.org/2000/svg">
<path d="M48.05 79C43.9433 79 41.01 78.1933 39.25 76.58C37.49 74.9667 36.61 72.6567 36.61 69.65C36.61 68.1833 36.72 65.69 36.94 62.17C37.16 58.5767 37.4533 54.5067 37.82 49.96C38.1867 45.4133 38.5533 40.61 38.92 35.55C39.2867 30.49 39.6533 25.7233 40.02 21.25C40.3867 16.7767 40.68 12.8533 40.9 9.48C41.12 6.10666 41.23 3.79666 41.23 2.54999C41.23 1.45 41.8167 0.899996 42.99 0.899996H81.71C82.15 0.899996 82.5533 1.01 82.92 1.23C83.2867 1.45 83.47 1.85333 83.47 2.44L83.03 8.93C82.8833 11.13 82.26 12.9267 81.16 14.32C80.1333 15.64 77.97 16.3 74.67 16.3H59.49L58.39 31.81H74.01C74.45 31.81 74.8533 31.92 75.22 32.14C75.5867 32.36 75.77 32.7633 75.77 33.35L75.33 39.84C75.1833 42.04 74.56 43.8367 73.46 45.23C72.4333 46.55 70.27 47.21 66.97 47.21H57.4L56.19 63.6H80.39C80.83 63.6 81.2333 63.7467 81.6 64.04C81.9667 64.26 82.15 64.6267 82.15 65.14L81.71 71.63C81.5633 73.83 80.94 75.6267 79.84 77.02C78.8133 78.34 76.65 79 73.35 79H48.05Z" fill="#2B1998"/>
<path d="M100.52 41.62C100.52 43.3067 100.41 45.3233 100.19 47.67C99.97 49.9433 99.7133 52.2533 99.42 54.6C99.2 56.8733 98.98 59.0367 98.76 61.09C98.54 63.07 98.43 64.61 98.43 65.71C98.43 68.4967 99.09 70.5867 100.41 71.98C101.803 73.3 103.49 73.96 105.47 73.96C108.917 73.96 111.667 72.1633 113.72 68.57C115.773 64.9767 117.057 60.21 117.57 54.27L119.33 33.7C119.403 32.8933 119.66 32.3433 120.1 32.05C120.613 31.6833 121.163 31.5 121.75 31.5H125.71C127.25 31.5 128.68 31.6467 130 31.94C131.393 32.16 132.603 32.6367 133.63 33.37C134.657 34.03 135.463 34.9467 136.05 36.12C136.637 37.2933 136.93 38.7967 136.93 40.63C136.93 41.3633 136.857 42.7567 136.71 44.81C136.637 46.79 136.453 49.6867 136.16 53.5C135.94 57.24 135.61 62.0067 135.17 67.8C134.73 73.52 134.217 80.5233 133.63 88.81C133.263 93.65 132.163 97.6467 130.33 100.8C128.57 104.027 126.333 106.557 123.62 108.39C120.907 110.297 117.863 111.617 114.49 112.35C111.117 113.083 107.67 113.45 104.15 113.45C100.41 113.45 96.9633 113.12 93.81 112.46C90.73 111.8 88.0533 110.883 85.78 109.71C83.5067 108.537 81.71 107.18 80.39 105.64C79.1433 104.1 78.52 102.45 78.52 100.69C78.52 99.2967 78.8133 98.0867 79.4 97.06C80.06 96.0333 80.9033 95.19 81.93 94.53C82.9567 93.87 84.13 93.3567 85.45 92.99C86.8433 92.6967 88.2733 92.55 89.74 92.55C90.4733 92.55 90.9867 92.9167 91.28 93.65C91.6467 94.3833 92.16 95.19 92.82 96.07C93.5533 97.0233 94.69 97.8667 96.23 98.6C97.77 99.3333 100.08 99.7 103.16 99.7C105.873 99.7 108.073 99.04 109.76 97.72C111.447 96.4 112.73 94.7133 113.61 92.66C114.563 90.6067 115.187 88.37 115.48 85.95C115.773 83.53 115.92 81.22 115.92 79.02C114.747 81.0733 113.427 82.76 111.96 84.08C110.567 85.3267 109.1 86.3167 107.56 87.05C106.02 87.71 104.48 88.15 102.94 88.37C101.4 88.59 99.9333 88.7 98.54 88.7C95.8267 88.7 93.3333 88.3333 91.06 87.6C88.86 86.8667 86.9533 85.6933 85.34 84.08C83.7267 82.3933 82.48 80.23 81.6 77.59C80.72 74.95 80.28 71.76 80.28 68.02C80.28 66.6267 80.3533 64.7933 80.5 62.52C80.6467 60.1733 80.83 57.57 81.05 54.71C81.27 51.7767 81.49 48.6233 81.71 45.25C82.0033 41.8767 82.2967 38.43 82.59 34.91C82.7367 32.6367 83.7633 31.5 85.67 31.5H89.19C91.5367 31.5 93.4433 31.72 94.91 32.16C96.3767 32.6 97.5133 33.26 98.32 34.14C99.2 34.9467 99.7867 36.01 100.08 37.33C100.373 38.5767 100.52 40.0067 100.52 41.62Z" fill="#2B1998"/>
<path d="M183.14 18.4C189.373 18.4 193.957 19.6467 196.89 22.14C199.823 24.56 201.29 27.6767 201.29 31.49C201.29 34.7167 200.263 37.1733 198.21 38.86C196.23 40.5467 193.333 41.39 189.52 41.39C188.493 41.39 187.797 41.28 187.43 41.06C187.063 40.84 186.88 40.4367 186.88 39.85C186.88 39.19 186.807 38.4567 186.66 37.65C186.587 36.77 186.33 35.9633 185.89 35.23C185.523 34.4233 184.9 33.7633 184.02 33.25C183.213 32.7367 182.04 32.48 180.5 32.48C178.447 32.48 176.797 32.9933 175.55 34.02C174.303 34.9733 173.68 36.1833 173.68 37.65C173.68 39.19 174.303 40.4367 175.55 41.39C176.87 42.27 178.483 43.1133 180.39 43.92C182.37 44.7267 184.497 45.57 186.77 46.45C189.043 47.2567 191.133 48.3567 193.04 49.75C195.02 51.1433 196.633 52.9033 197.88 55.03C199.2 57.0833 199.86 59.76 199.86 63.06C199.86 68.34 197.99 72.6667 194.25 76.04C190.51 79.4133 184.9 81.1 177.42 81.1C175.367 81.1 172.983 80.9167 170.27 80.55C167.63 80.2567 165.1 79.78 162.68 79.12C160.26 78.3867 158.207 77.4333 156.52 76.26C154.907 75.0867 154.1 73.62 154.1 71.86C154.1 71.2 154.21 70.3933 154.43 69.44C154.723 68.4867 155.127 67.57 155.64 66.69C156.227 65.81 156.887 65.0767 157.62 64.49C158.427 63.83 159.38 63.5 160.48 63.5C161.36 63.5 162.167 63.72 162.9 64.16C163.633 64.6 164.477 65.0767 165.43 65.59C166.457 66.03 167.703 66.47 169.17 66.91C170.637 67.35 172.58 67.57 175 67.57C176.833 67.57 178.447 67.35 179.84 66.91C181.307 66.47 182.04 65.48 182.04 63.94C182.04 62.5467 181.453 61.4467 180.28 60.64C179.107 59.76 177.603 58.9533 175.77 58.22C174.01 57.4867 172.067 56.7167 169.94 55.91C167.887 55.03 165.943 53.8933 164.11 52.5C162.35 51.1067 160.883 49.3467 159.71 47.22C158.537 45.02 157.95 42.1967 157.95 38.75C157.95 35.01 158.683 31.8567 160.15 29.29C161.69 26.65 163.633 24.5233 165.98 22.91C168.4 21.2967 171.113 20.16 174.12 19.5C177.127 18.7667 180.133 18.4 183.14 18.4Z" fill="#2B1998"/>
<path d="M128.05 79C123.943 79 121.01 78.1933 119.25 76.58C117.49 74.9667 116.61 72.6567 116.61 69.65C116.61 68.1833 116.72 65.69 116.94 62.17C117.16 58.5767 117.453 54.5067 117.82 49.96C118.187 45.4133 118.553 40.61 118.92 35.55C119.287 30.49 119.653 25.7233 120.02 21.25C120.387 16.7767 120.68 12.8533 120.9 9.48C121.12 6.10666 121.23 3.79666 121.23 2.54999C121.23 1.45 121.817 0.899996 122.99 0.899996H161.71C162.15 0.899996 162.553 1.01 162.92 1.23C163.287 1.45 163.47 1.85333 163.47 2.44L163.03 8.93C162.883 11.13 162.26 12.9267 161.16 14.32C160.133 15.64 157.97 16.3 154.67 16.3H139.49L138.39 31.81H154.01C154.45 31.81 154.853 31.92 155.22 32.14C155.587 32.36 155.77 32.7633 155.77 33.35L155.33 39.84C155.183 42.04 154.56 43.8367 153.46 45.23C152.433 46.55 150.27 47.21 146.97 47.21H137.4L136.19 63.6H160.39C160.83 63.6 161.233 63.7467 161.6 64.04C161.967 64.26 162.15 64.6267 162.15 65.14L161.71 71.63C161.563 73.83 160.94 75.6267 159.84 77.02C158.813 78.34 156.65 79 153.35 79H128.05Z" fill="#2B1998"/>
<path d="M11.66 57.88C8.8 57.88 6.49 57.4033 4.73 56.45C3.04333 55.4233 2.2 53.7367 2.2 51.39C2.2 50.51 2.31 49.52 2.53 48.42C2.82333 47.2467 3.19 45.78 3.63 44.02C4.14333 42.1867 4.76667 39.95 5.5 37.31C6.30667 34.67 7.26 31.4067 8.36 27.52C9.09333 24.9533 9.71667 22.6433 10.23 20.59C10.8167 18.4633 11.2933 16.52 11.66 14.76C12.0267 13 12.2833 11.3867 12.43 9.92C12.65 8.38 12.76 6.87666 12.76 5.41C12.76 4.52999 12.8333 3.57666 12.98 2.54999C13.2 1.45 13.7133 0.899996 14.52 0.899996H19.47C23.65 0.899996 26.51 1.63333 28.05 3.09999C29.6633 4.56666 30.47 7.06 30.47 10.58C30.47 11.9 30.36 13.4033 30.14 15.09C29.92 16.7767 29.5167 18.8667 28.93 21.36C28.4167 23.8533 27.72 26.8233 26.84 30.27C26.0333 33.7167 25.0067 37.86 23.76 42.7H38.5C38.72 40.1333 38.94 37.31 39.16 34.23C39.4533 31.0767 39.71 28.0333 39.93 25.1C40.15 22.1667 40.3333 19.5267 40.48 17.18C40.7 14.76 40.8467 13 40.92 11.9C41.0667 9.33333 41.14 7.31666 41.14 5.85C41.14 4.38333 41.1767 3.28333 41.25 2.54999C41.3967 1.81666 41.58 1.37666 41.8 1.23C42.0933 1.01 42.5333 0.899996 43.12 0.899996H49.17C51.5167 0.899996 53.3867 1.15666 54.78 1.67C56.2467 2.11 57.3833 2.77 58.19 3.64999C58.9967 4.52999 59.5467 5.63 59.84 6.95C60.1333 8.19666 60.28 9.66333 60.28 11.35C60.28 13.0367 60.17 15.7867 59.95 19.6C59.8033 23.34 59.5467 27.5933 59.18 32.36C58.8867 37.0533 58.5567 41.93 58.19 46.99C57.8967 52.05 57.5667 56.7433 57.2 61.07C56.9067 65.3967 56.65 69.0633 56.43 72.07C56.21 75.0767 56.0633 76.8367 55.99 77.35C55.9167 77.9367 55.77 78.3767 55.55 78.67C55.33 78.89 54.89 79 54.23 79H48.18C44.1467 79 41.2133 78.1933 39.38 76.58C37.62 74.9667 36.74 72.6567 36.74 69.65C36.74 69.0633 36.7767 67.89 36.85 66.13C36.9233 64.37 37.07 61.62 37.29 57.88H11.66Z" fill="#AE00A2"/>
<path d="M134.1 104C133.353 104 132.82 103.853 132.5 103.56C132.18 103.267 132.02 102.847 132.02 102.3C132.02 102.033 132.04 101.58 132.08 100.94C132.12 100.287 132.173 99.5467 132.24 98.72C132.307 97.8933 132.373 97.02 132.44 96.1C132.507 95.18 132.573 94.3133 132.64 93.5C132.707 92.6867 132.76 91.9733 132.8 91.36C132.84 90.7467 132.86 90.3267 132.86 90.1C132.86 89.9 132.967 89.8 133.18 89.8H134.28C135.027 89.8 135.54 89.9467 135.82 90.24C136.113 90.52 136.26 90.94 136.26 91.5C136.26 91.5667 136.253 91.6267 136.24 91.68C136.24 91.7333 136.24 91.7933 136.24 91.86L135.58 101.2H139.18C139.26 101.2 139.333 101.227 139.4 101.28C139.467 101.32 139.5 101.387 139.5 101.48L139.42 102.66C139.393 103.06 139.28 103.387 139.08 103.64C138.893 103.88 138.5 104 137.9 104H134.1ZM145.307 104.2C144.721 104.2 144.134 104.127 143.547 103.98C142.974 103.833 142.454 103.58 141.987 103.22C141.534 102.86 141.161 102.38 140.867 101.78C140.574 101.18 140.427 100.427 140.427 99.52C140.427 99.1867 140.454 98.7867 140.507 98.32C140.561 97.8533 140.661 97.3733 140.807 96.88C140.967 96.3867 141.181 95.9 141.447 95.42C141.727 94.9267 142.087 94.4867 142.527 94.1C142.967 93.7133 143.501 93.4 144.127 93.16C144.754 92.92 145.501 92.8 146.367 92.8C147.061 92.8 147.647 92.88 148.127 93.04C148.607 93.2 148.994 93.42 149.287 93.7C149.581 93.9667 149.794 94.28 149.927 94.64C150.061 95 150.127 95.3867 150.127 95.8C150.127 96.4133 150.001 96.9333 149.747 97.36C149.507 97.7867 149.187 98.1467 148.787 98.44C148.401 98.72 147.967 98.94 147.487 99.1C147.007 99.26 146.534 99.3867 146.067 99.48C145.601 99.56 145.167 99.6133 144.767 99.64C144.381 99.6533 144.081 99.66 143.867 99.66C143.867 99.9133 143.901 100.167 143.967 100.42C144.047 100.66 144.161 100.873 144.307 101.06C144.454 101.247 144.647 101.4 144.887 101.52C145.127 101.64 145.421 101.7 145.767 101.7C146.114 101.7 146.381 101.647 146.567 101.54C146.767 101.42 146.927 101.293 147.047 101.16C147.167 101.013 147.267 100.887 147.347 100.78C147.441 100.66 147.561 100.6 147.707 100.6C147.774 100.6 147.887 100.62 148.047 100.66C148.221 100.687 148.394 100.753 148.567 100.86C148.741 100.967 148.894 101.113 149.027 101.3C149.161 101.487 149.227 101.727 149.227 102.02C149.227 102.407 149.107 102.74 148.867 103.02C148.627 103.3 148.314 103.527 147.927 103.7C147.554 103.873 147.134 104 146.667 104.08C146.201 104.16 145.747 104.2 145.307 104.2ZM145.687 95.46C145.394 95.46 145.141 95.5467 144.927 95.72C144.727 95.88 144.554 96.0867 144.407 96.34C144.274 96.5933 144.167 96.8733 144.087 97.18C144.021 97.4867 143.967 97.78 143.927 98.06C144.754 98.0467 145.421 97.9067 145.927 97.64C146.447 97.3733 146.707 96.9933 146.707 96.5C146.707 96.2333 146.621 95.9933 146.447 95.78C146.287 95.5667 146.034 95.46 145.687 95.46ZM150.732 101.54C150.732 100.34 151.272 99.4 152.352 98.72C153.432 98.04 155.025 97.6733 157.132 97.62C157.145 97.4733 157.152 97.3533 157.152 97.26C157.165 97.1533 157.172 97.0267 157.172 96.88C157.172 96.4533 157.092 96.1133 156.932 95.86C156.772 95.6067 156.438 95.48 155.932 95.48C155.652 95.48 155.425 95.52 155.252 95.6C155.078 95.68 154.938 95.7933 154.832 95.94C154.725 96.0733 154.638 96.24 154.572 96.44C154.505 96.64 154.445 96.86 154.392 97.1C154.365 97.22 154.305 97.3 154.212 97.34C154.118 97.3667 153.972 97.38 153.772 97.38C152.412 97.38 151.732 96.8667 151.732 95.84C151.732 95.4267 151.825 95.0333 152.012 94.66C152.212 94.2867 152.498 93.9667 152.872 93.7C153.258 93.42 153.738 93.2 154.312 93.04C154.885 92.88 155.552 92.8 156.312 92.8C157.792 92.8 158.865 93.1067 159.532 93.72C160.198 94.3333 160.532 95.2 160.532 96.32C160.532 96.4667 160.512 96.7333 160.472 97.12C160.445 97.4933 160.405 97.8933 160.352 98.32C160.312 98.7333 160.272 99.1267 160.232 99.5C160.205 99.8733 160.192 100.133 160.192 100.28C160.192 100.613 160.252 100.853 160.372 101C160.492 101.133 160.625 101.227 160.772 101.28C160.932 101.333 161.072 101.373 161.192 101.4C161.312 101.427 161.372 101.493 161.372 101.6C161.372 101.893 161.332 102.193 161.252 102.5C161.172 102.807 161.038 103.087 160.852 103.34C160.678 103.593 160.432 103.8 160.112 103.96C159.805 104.12 159.425 104.2 158.972 104.2C158.332 104.2 157.852 104.047 157.532 103.74C157.212 103.433 156.998 103.007 156.892 102.46C156.572 102.927 156.152 103.333 155.632 103.68C155.125 104.027 154.458 104.2 153.632 104.2C153.232 104.2 152.852 104.153 152.492 104.06C152.145 103.967 151.838 103.813 151.572 103.6C151.318 103.387 151.112 103.113 150.952 102.78C150.805 102.433 150.732 102.02 150.732 101.54ZM156.952 99.26C156.605 99.26 156.265 99.2867 155.932 99.34C155.598 99.3933 155.298 99.48 155.032 99.6C154.778 99.7067 154.572 99.8533 154.412 100.04C154.252 100.227 154.172 100.453 154.172 100.72C154.172 101.027 154.265 101.24 154.452 101.36C154.652 101.48 154.865 101.54 155.092 101.54C155.305 101.54 155.518 101.493 155.732 101.4C155.945 101.307 156.132 101.167 156.292 100.98C156.465 100.78 156.612 100.54 156.732 100.26C156.852 99.98 156.925 99.6467 156.952 99.26ZM169.061 97.78C168.981 97.78 168.888 97.78 168.781 97.78C168.688 97.7667 168.595 97.7533 168.501 97.74C168.408 97.7133 168.328 97.6867 168.261 97.66C168.195 97.62 168.161 97.5733 168.161 97.52C168.161 97.3467 168.168 97.1867 168.181 97.04C168.195 96.8933 168.201 96.74 168.201 96.58C168.201 96.2867 168.161 96.0467 168.081 95.86C168.001 95.6733 167.841 95.58 167.601 95.58C167.228 95.58 166.915 95.8267 166.661 96.32C166.421 96.8 166.268 97.5267 166.201 98.5C166.175 98.9267 166.135 99.4133 166.081 99.96C166.041 100.493 166.001 101.013 165.961 101.52C165.921 102.013 165.888 102.453 165.861 102.84C165.835 103.227 165.821 103.48 165.821 103.6C165.821 103.733 165.775 103.833 165.681 103.9C165.588 103.967 165.488 104 165.381 104H164.661C164.248 104 163.908 103.96 163.641 103.88C163.388 103.787 163.181 103.66 163.021 103.5C162.875 103.34 162.768 103.147 162.701 102.92C162.648 102.68 162.621 102.407 162.621 102.1C162.621 101.9 162.628 101.62 162.641 101.26C162.668 100.887 162.708 100.38 162.761 99.74C162.815 99.0867 162.875 98.2667 162.941 97.28C163.021 96.28 163.115 95.0467 163.221 93.58C163.248 93.1933 163.388 93 163.641 93H164.421C164.795 93 165.108 93.04 165.361 93.12C165.615 93.2 165.821 93.3133 165.981 93.46C166.141 93.5933 166.255 93.7533 166.321 93.94C166.401 94.1267 166.455 94.32 166.481 94.52C166.641 94.2133 166.828 93.9533 167.041 93.74C167.268 93.5133 167.501 93.3333 167.741 93.2C167.981 93.0533 168.228 92.9533 168.481 92.9C168.735 92.8333 168.968 92.8 169.181 92.8C169.435 92.8 169.688 92.8467 169.941 92.94C170.208 93.0333 170.448 93.1733 170.661 93.36C170.875 93.5467 171.041 93.7867 171.161 94.08C171.295 94.3733 171.361 94.72 171.361 95.12C171.361 95.48 171.308 95.82 171.201 96.14C171.095 96.46 170.941 96.7467 170.741 97C170.541 97.24 170.295 97.4333 170.001 97.58C169.721 97.7133 169.408 97.78 169.061 97.78ZM178.992 102.24C178.992 101.947 179.012 101.567 179.052 101.1C179.105 100.62 179.152 100.12 179.192 99.6C179.245 99.0667 179.292 98.5533 179.332 98.06C179.385 97.5667 179.412 97.1533 179.412 96.82C179.412 96.4733 179.325 96.1667 179.152 95.9C178.992 95.62 178.672 95.48 178.192 95.48C177.725 95.48 177.338 95.5933 177.032 95.82C176.725 96.0467 176.465 96.46 176.252 97.06C176.052 97.66 175.885 98.4867 175.752 99.54C175.618 100.593 175.492 101.947 175.372 103.6C175.358 103.76 175.325 103.867 175.272 103.92C175.218 103.973 175.105 104 174.932 104H174.212C173.798 104 173.458 103.96 173.192 103.88C172.938 103.787 172.732 103.66 172.572 103.5C172.425 103.34 172.318 103.147 172.252 102.92C172.198 102.68 172.172 102.407 172.172 102.1C172.172 101.9 172.178 101.62 172.192 101.26C172.218 100.887 172.258 100.38 172.312 99.74C172.365 99.0867 172.425 98.2667 172.492 97.28C172.572 96.28 172.665 95.0467 172.772 93.58C172.785 93.2867 172.818 93.1133 172.872 93.06C172.912 93.02 173.018 93 173.192 93H173.972C174.372 93 174.698 93.0467 174.952 93.14C175.218 93.2333 175.432 93.36 175.592 93.52C175.752 93.6667 175.865 93.8467 175.932 94.06C175.998 94.26 176.038 94.4667 176.052 94.68C176.465 93.9733 176.938 93.4867 177.472 93.22C178.005 92.94 178.672 92.8 179.472 92.8C180.032 92.8 180.518 92.86 180.932 92.98C181.345 93.1 181.685 93.3067 181.952 93.6C182.232 93.88 182.438 94.2533 182.572 94.72C182.705 95.1733 182.772 95.74 182.772 96.42C182.772 96.6333 182.758 96.94 182.732 97.34C182.705 97.74 182.672 98.18 182.632 98.66C182.592 99.1267 182.545 99.62 182.492 100.14C182.452 100.647 182.412 101.12 182.372 101.56C182.332 102 182.298 102.387 182.272 102.72C182.245 103.053 182.232 103.273 182.232 103.38C182.232 103.673 182.198 103.853 182.132 103.92C182.065 103.973 181.918 104 181.692 104H181.052C180.625 104 180.278 103.96 180.012 103.88C179.745 103.8 179.538 103.687 179.392 103.54C179.245 103.393 179.138 103.213 179.072 103C179.018 102.773 178.992 102.52 178.992 102.24ZM186.614 104C186.201 104 185.861 103.96 185.594 103.88C185.341 103.787 185.134 103.66 184.974 103.5C184.828 103.34 184.721 103.147 184.654 102.92C184.601 102.68 184.574 102.407 184.574 102.1C184.574 101.9 184.581 101.62 184.594 101.26C184.621 100.887 184.661 100.38 184.714 99.74C184.768 99.0867 184.828 98.2667 184.894 97.28C184.974 96.28 185.068 95.0467 185.174 93.58C185.188 93.2867 185.221 93.1133 185.274 93.06C185.314 93.02 185.421 93 185.594 93H186.374C186.788 93 187.121 93.04 187.374 93.12C187.641 93.2 187.848 93.32 187.994 93.48C188.154 93.64 188.261 93.8333 188.314 94.06C188.381 94.2867 188.414 94.54 188.414 94.82C188.414 95.02 188.401 95.32 188.374 95.72C188.348 96.12 188.308 96.6667 188.254 97.36C188.214 98.04 188.154 98.8933 188.074 99.92C187.994 100.933 187.894 102.16 187.774 103.6C187.761 103.76 187.728 103.867 187.674 103.92C187.621 103.973 187.508 104 187.334 104H186.614ZM185.194 90.64C185.194 90.1067 185.388 89.6867 185.774 89.38C186.161 89.0733 186.681 88.92 187.334 88.92C187.908 88.92 188.321 89.04 188.574 89.28C188.841 89.5067 188.974 89.8133 188.974 90.2C188.974 90.6933 188.788 91.1067 188.414 91.44C188.054 91.76 187.521 91.92 186.814 91.92C185.734 91.92 185.194 91.4933 185.194 90.64ZM196.999 102.24C196.999 101.947 197.019 101.567 197.059 101.1C197.113 100.62 197.159 100.12 197.199 99.6C197.253 99.0667 197.299 98.5533 197.339 98.06C197.393 97.5667 197.419 97.1533 197.419 96.82C197.419 96.4733 197.333 96.1667 197.159 95.9C196.999 95.62 196.679 95.48 196.199 95.48C195.733 95.48 195.346 95.5933 195.039 95.82C194.733 96.0467 194.473 96.46 194.259 97.06C194.059 97.66 193.893 98.4867 193.759 99.54C193.626 100.593 193.499 101.947 193.379 103.6C193.366 103.76 193.333 103.867 193.279 103.92C193.226 103.973 193.113 104 192.939 104H192.219C191.806 104 191.466 103.96 191.199 103.88C190.946 103.787 190.739 103.66 190.579 103.5C190.433 103.34 190.326 103.147 190.259 102.92C190.206 102.68 190.179 102.407 190.179 102.1C190.179 101.9 190.186 101.62 190.199 101.26C190.226 100.887 190.266 100.38 190.319 99.74C190.373 99.0867 190.433 98.2667 190.499 97.28C190.579 96.28 190.673 95.0467 190.779 93.58C190.793 93.2867 190.826 93.1133 190.879 93.06C190.919 93.02 191.026 93 191.199 93H191.979C192.379 93 192.706 93.0467 192.959 93.14C193.226 93.2333 193.439 93.36 193.599 93.52C193.759 93.6667 193.873 93.8467 193.939 94.06C194.006 94.26 194.046 94.4667 194.059 94.68C194.473 93.9733 194.946 93.4867 195.479 93.22C196.013 92.94 196.679 92.8 197.479 92.8C198.039 92.8 198.526 92.86 198.939 92.98C199.353 93.1 199.693 93.3067 199.959 93.6C200.239 93.88 200.446 94.2533 200.579 94.72C200.713 95.1733 200.779 95.74 200.779 96.42C200.779 96.6333 200.766 96.94 200.739 97.34C200.713 97.74 200.679 98.18 200.639 98.66C200.599 99.1267 200.553 99.62 200.499 100.14C200.459 100.647 200.419 101.12 200.379 101.56C200.339 102 200.306 102.387 200.279 102.72C200.253 103.053 200.239 103.273 200.239 103.38C200.239 103.673 200.206 103.853 200.139 103.92C200.073 103.973 199.926 104 199.699 104H199.059C198.633 104 198.286 103.96 198.019 103.88C197.753 103.8 197.546 103.687 197.399 103.54C197.253 103.393 197.146 103.213 197.079 103C197.026 102.773 196.999 102.52 196.999 102.24ZM209.102 101.64C208.769 102.24 208.362 102.687 207.882 102.98C207.402 103.26 206.802 103.4 206.082 103.4C205.536 103.4 205.036 103.313 204.582 103.14C204.129 102.967 203.742 102.693 203.422 102.32C203.102 101.947 202.849 101.48 202.662 100.92C202.489 100.347 202.402 99.6667 202.402 98.88C202.402 98.24 202.469 97.5667 202.602 96.86C202.736 96.14 202.976 95.48 203.322 94.88C203.682 94.28 204.169 93.7867 204.782 93.4C205.396 93 206.182 92.8 207.142 92.8C207.542 92.8 207.882 92.8467 208.162 92.94C208.456 93.02 208.702 93.1333 208.902 93.28C209.116 93.4267 209.282 93.6 209.402 93.8C209.536 94 209.636 94.2133 209.702 94.44C209.702 94.4533 209.702 94.4067 209.702 94.3C209.716 94.18 209.729 94.0467 209.742 93.9C209.756 93.7533 209.762 93.6133 209.762 93.48C209.776 93.3333 209.782 93.24 209.782 93.2C209.796 93.0667 209.882 93 210.042 93H210.962C211.656 93 212.156 93.1467 212.462 93.44C212.782 93.72 212.942 94.26 212.942 95.06C212.942 95.1667 212.936 95.4133 212.922 95.8C212.909 96.1733 212.882 96.6267 212.842 97.16C212.816 97.6933 212.776 98.2867 212.722 98.94C212.669 99.58 212.609 100.227 212.542 100.88C212.476 101.533 212.402 102.16 212.322 102.76C212.242 103.36 212.156 103.887 212.062 104.34C211.969 104.793 211.809 105.233 211.582 105.66C211.356 106.087 211.036 106.467 210.622 106.8C210.209 107.133 209.676 107.4 209.022 107.6C208.382 107.8 207.596 107.9 206.662 107.9C205.956 107.9 205.336 107.833 204.802 107.7C204.282 107.567 203.849 107.387 203.502 107.16C203.156 106.947 202.889 106.7 202.702 106.42C202.529 106.14 202.442 105.86 202.442 105.58C202.442 105.327 202.496 105.107 202.602 104.92C202.709 104.733 202.849 104.58 203.022 104.46C203.196 104.34 203.382 104.247 203.582 104.18C203.796 104.127 203.996 104.1 204.182 104.1C204.409 104.1 204.576 104.167 204.682 104.3C204.789 104.433 204.909 104.58 205.042 104.74C205.176 104.913 205.362 105.067 205.602 105.2C205.842 105.333 206.216 105.4 206.722 105.4C207.602 105.4 208.216 105.073 208.562 104.42C208.922 103.78 209.102 102.853 209.102 101.64ZM207.422 100.74C207.902 100.74 208.276 100.627 208.542 100.4C208.822 100.173 209.036 99.9 209.182 99.58C209.329 99.26 209.422 98.9267 209.462 98.58C209.502 98.2333 209.522 97.9333 209.522 97.68C209.522 96.88 209.396 96.3133 209.142 95.98C208.902 95.6333 208.536 95.46 208.042 95.46C207.549 95.46 207.162 95.5933 206.882 95.86C206.602 96.1267 206.389 96.4467 206.242 96.82C206.109 97.18 206.022 97.5467 205.982 97.92C205.942 98.28 205.922 98.56 205.922 98.76C205.922 99.4267 206.036 99.9267 206.262 100.26C206.489 100.58 206.876 100.74 207.422 100.74Z" fill="#AE00A2"/>
</svg>
